<svg width="714" height="458" xmlns="http://www.w3.org/2000/svg" xmlns:xlink="http://www.w3.org/1999/xlink" overflow="hidden"><defs><clipPath id="clip0"><rect x="97" y="145" width="714" height="458"/></clipPath><clipPath id="clip1"><rect x="97" y="145" width="713" height="457"/></clipPath><clipPath id="clip2"><rect x="152" y="214" width="644" height="341"/></clipPath><clipPath id="clip3"><rect x="97" y="145" width="713" height="457"/></clipPath><clipPath id="clip4"><rect x="97" y="145" width="713" height="457"/></clipPath><clipPath id="clip5"><rect x="97" y="145" width="713" height="457"/></clipPath><clipPath id="clip6"><rect x="97" y="145" width="713" height="457"/></clipPath><clipPath id="clip7"><rect x="97" y="145" width="713" height="457"/></clipPath><clipPath id="clip8"><rect x="97" y="145" width="713" height="457"/></clipPath><clipPath id="clip9"><rect x="97" y="145" width="713" height="457"/></clipPath><clipPath id="clip10"><rect x="97" y="145" width="713" height="457"/></clipPath><clipPath id="clip11"><rect x="97" y="145" width="713" height="457"/></clipPath><clipPath id="clip12"><rect x="97" y="145" width="713" height="457"/></clipPath><clipPath id="clip13"><rect x="97" y="145" width="713" height="457"/></clipPath><clipPath id="clip14"><rect x="97" y="145" width="713" height="457"/></clipPath><clipPath id="clip15"><rect x="97" y="145" width="713" height="457"/></clipPath><clipPath id="clip16"><rect x="97" y="145" width="713" height="457"/></clipPath><clipPath id="clip17"><rect x="97" y="145" width="713" height="457"/></clipPath><clipPath id="clip18"><rect x="97" y="145" width="713" height="457"/></clipPath><clipPath id="clip19"><rect x="97" y="145" width="713" height="457"/></clipPath></defs><g clip-path="url(#clip0)" transform="translate(-97 -145)"><rect x="98" y="146" width="712" height="456" fill="#FFFFFF"/><g clip-path="url(#clip1)"><path d="M152.5 520.5 795.5 520.5M152.5 486.5 795.5 486.5M152.5 452.5 795.5 452.5M152.5 418.5 795.5 418.5M152.5 384.5 795.5 384.5M152.5 350.5 795.5 350.5M152.5 316.5 795.5 316.5M152.5 282.5 795.5 282.5M152.5 248.5 795.5 248.5M152.5 214.5 795.5 214.5" stroke="#D9D9D9" stroke-linejoin="round" stroke-miterlimit="10" fill="none"/></g><g clip-path="url(#clip2)"><path d="M196 327 269 327 269 554 196 554ZM357 266 430 266 430 554 357 554ZM518 313 591 313 591 554 518 554ZM678 252 752 252 752 554 678 554Z" fill="#4472C4"/></g><g clip-path="url(#clip3)"><path d="M152.5 554.5 795.5 554.5" stroke="#D9D9D9" stroke-linejoin="round" stroke-miterlimit="10" fill="none" fill-rule="evenodd"/></g><g clip-path="url(#clip4)"><text fill="#595959" font-family="Calibri,Calibri_MSFontService,sans-serif" font-weight="400" font-size="19" transform="translate(125.383 560)">0</text></g><g clip-path="url(#clip5)"><text fill="#595959" font-family="Calibri,Calibri_MSFontService,sans-serif" font-weight="400" font-size="19" transform="translate(115.923 526)">10</text></g><g clip-path="url(#clip6)"><text fill="#595959" font-family="Calibri,Calibri_MSFontService,sans-serif" font-weight="400" font-size="19" transform="translate(115.923 492)">20</text></g><g clip-path="url(#clip7)"><text fill="#595959" font-family="Calibri,Calibri_MSFontService,sans-serif" font-weight="400" font-size="19" transform="translate(115.923 458)">30</text></g><g clip-path="url(#clip8)"><text fill="#595959" font-family="Calibri,Calibri_MSFontService,sans-serif" font-weight="400" font-size="19" transform="translate(115.923 424)">40</text></g><g clip-path="url(#clip9)"><text fill="#595959" font-family="Calibri,Calibri_MSFontService,sans-serif" font-weight="400" font-size="19" transform="translate(115.923 390)">50</text></g><g clip-path="url(#clip10)"><text fill="#595959" font-family="Calibri,Calibri_MSFontService,sans-serif" font-weight="400" font-size="19" transform="translate(115.923 356)">60</text></g><g clip-path="url(#clip11)"><text fill="#595959" font-family="Calibri,Calibri_MSFontService,sans-serif" font-weight="400" font-size="19" transform="translate(115.923 322)">70</text></g><g clip-path="url(#clip12)"><text fill="#595959" font-family="Calibri,Calibri_MSFontService,sans-serif" font-weight="400" font-size="19" transform="translate(115.923 288)">80</text></g><g clip-path="url(#clip13)"><text fill="#595959" font-family="Calibri,Calibri_MSFontService,sans-serif" font-weight="400" font-size="19" transform="translate(115.923 254)">90</text></g><g clip-path="url(#clip14)"><text fill="#595959" font-family="Calibri,Calibri_MSFontService,sans-serif" font-weight="400" font-size="19" transform="translate(106.463 220)">100</text></g><g clip-path="url(#clip15)"><text fill="#595959" font-family="Calibri,Calibri_MSFontService,sans-serif" font-weight="400" font-size="21" transform="translate(195.199 588)">Scotland</text></g><g clip-path="url(#clip16)"><text fill="#595959" font-family="Calibri,Calibri_MSFontService,sans-serif" font-weight="400" font-size="21" transform="translate(358.8 588)">England</text></g><g clip-path="url(#clip17)"><text fill="#595959" font-family="Calibri,Calibri_MSFontService,sans-serif" font-weight="400" font-size="21" transform="translate(527.693 588)">Wales</text></g><g clip-path="url(#clip18)"><text fill="#595959" font-family="Calibri,Calibri_MSFontService,sans-serif" font-weight="400" font-size="21" transform="translate(675.271 588)">N Ireland</text></g><g clip-path="url(#clip19)"><text fill="#595959" font-family="Calibri,Calibri_MSFontService,sans-serif" font-weight="400" font-size="32" transform="translate(232.026 186)">Graph A: Employment Rate (2019)</text></g></g></svg>