<svg width="2934" height="1989" xmlns="http://www.w3.org/2000/svg" xmlns:xlink="http://www.w3.org/1999/xlink" overflow="hidden"><defs><clipPath id="clip0"><rect x="733" y="259" width="2934" height="1989"/></clipPath><clipPath id="clip1"><rect x="733" y="259" width="2933" height="1988"/></clipPath><clipPath id="clip2"><rect x="733" y="259" width="2933" height="1988"/></clipPath><clipPath id="clip3"><rect x="733" y="259" width="2933" height="1988"/></clipPath><clipPath id="clip4"><rect x="733" y="259" width="2933" height="1988"/></clipPath><clipPath id="clip5"><rect x="733" y="259" width="2933" height="1988"/></clipPath><clipPath id="clip6"><rect x="733" y="259" width="2933" height="1988"/></clipPath><clipPath id="clip7"><rect x="733" y="259" width="2933" height="1988"/></clipPath><clipPath id="clip8"><rect x="1227" y="1472" width="236" height="219"/></clipPath><clipPath id="clip9"><rect x="733" y="259" width="2933" height="1988"/></clipPath><clipPath id="clip10"><rect x="1227" y="1472" width="236" height="219"/></clipPath><clipPath id="clip11"><rect x="733" y="259" width="2933" height="1988"/></clipPath><clipPath id="clip12"><rect x="733" y="259" width="2933" height="1988"/></clipPath><clipPath id="clip13"><rect x="1297" y="810" width="246" height="219"/></clipPath><clipPath id="clip14"><rect x="733" y="259" width="2933" height="1988"/></clipPath><clipPath id="clip15"><rect x="1297" y="810" width="246" height="219"/></clipPath><clipPath id="clip16"><rect x="733" y="259" width="2933" height="1988"/></clipPath><clipPath id="clip17"><rect x="733" y="259" width="2933" height="1988"/></clipPath><clipPath id="clip18"><rect x="1667" y="448" width="249" height="218"/></clipPath><clipPath id="clip19"><rect x="733" y="259" width="2933" height="1988"/></clipPath><clipPath id="clip20"><rect x="1667" y="448" width="249" height="218"/></clipPath><clipPath id="clip21"><rect x="733" y="259" width="2933" height="1988"/></clipPath><clipPath id="clip22"><rect x="733" y="259" width="2933" height="1988"/></clipPath><clipPath id="clip23"><rect x="2841" y="780" width="173" height="218"/></clipPath><clipPath id="clip24"><rect x="733" y="259" width="2933" height="1988"/></clipPath><clipPath id="clip25"><rect x="2841" y="780" width="173" height="218"/></clipPath><clipPath id="clip26"><rect x="733" y="259" width="2933" height="1988"/></clipPath><clipPath id="clip27"><rect x="733" y="259" width="2933" height="1988"/></clipPath><clipPath id="clip28"><rect x="2752" y="1988" width="178" height="219"/></clipPath><clipPath id="clip29"><rect x="733" y="259" width="2933" height="1988"/></clipPath><clipPath id="clip30"><rect x="2752" y="1988" width="178" height="219"/></clipPath><clipPath id="clip31"><rect x="733" y="259" width="2933" height="1988"/></clipPath><clipPath id="clip32"><rect x="733" y="259" width="2933" height="1988"/></clipPath><clipPath id="clip33"><rect x="733" y="259" width="2933" height="1988"/></clipPath></defs><g clip-path="url(#clip0)" transform="translate(-733 -259)"><rect x="733" y="260" width="2934" height="1988" fill="#FFFFFF"/><g clip-path="url(#clip1)"><path d="M1630.38 1808.81C1507.49 1651.52 1455.11 1450.43 1485.64 1253.18L2200 1363.77Z" stroke="#FFFFFF" stroke-width="6.875" stroke-linejoin="round" stroke-miterlimit="10" fill="#92D050" fill-rule="evenodd"/></g><g clip-path="url(#clip2)"><path d="M1485.65 1253.18C1513.77 1071.49 1610.08 907.339 1754.96 794.144L2200 1363.77Z" stroke="#FFFFFF" stroke-width="6.875" stroke-linejoin="round" stroke-miterlimit="10" fill="#FFFF00" fill-rule="evenodd"/></g><g clip-path="url(#clip3)"><path d="M1754.96 794.143C1863.05 709.692 1992.94 657.74 2129.46 644.354L2200 1363.77Z" stroke="#FFFFFF" stroke-width="6.875" stroke-linejoin="round" stroke-miterlimit="10" fill="#7030A0" fill-rule="evenodd"/></g><g clip-path="url(#clip4)"><path d="M2129.46 644.355C2526.78 605.397 2880.46 895.908 2919.41 1293.23 2934.31 1445.15 2900.73 1597.9 2823.48 1729.56L2200 1363.77Z" stroke="#FFFFFF" stroke-width="6.875" stroke-linejoin="round" stroke-miterlimit="10" fill="#FF0000" fill-rule="evenodd"/></g><g clip-path="url(#clip5)"><path d="M2823.48 1729.56C2621.46 2073.9 2178.54 2189.27 1834.21 1987.25 1755.62 1941.15 1686.47 1880.6 1630.38 1808.81L2200 1363.77Z" stroke="#FFFFFF" stroke-width="6.875" stroke-linejoin="round" stroke-miterlimit="10" fill="#00B0F0" fill-rule="evenodd"/></g><g clip-path="url(#clip6)"><path d="M1227.5 1472.5 1364.58 1472.5 1364.58 1472.5 1423.33 1472.5 1462.5 1472.5 1462.5 1508.83 1500.4 1545.8 1462.5 1563.33 1462.5 1690.5 1423.33 1690.5 1364.58 1690.5 1364.58 1690.5 1227.5 1690.5 1227.5 1563.33 1227.5 1508.83 1227.5 1508.83Z" stroke="#BFBFBF" stroke-width="3.4375" stroke-linejoin="round" stroke-miterlimit="10" fill="#FFFFFF" fill-rule="evenodd"/></g><g clip-path="url(#clip7)"><g clip-path="url(#clip8)"><text fill="#595959" font-family="Calibri,Calibri_MSFontService,sans-serif" font-weight="400" font-size="83" transform="matrix(1 0 0 1 1242.56 1560)">Green</text></g></g><g clip-path="url(#clip9)"><g clip-path="url(#clip10)"><text fill="#595959" font-family="Calibri,Calibri_MSFontService,sans-serif" font-weight="400" font-size="83" transform="matrix(1 0 0 1 1273.84 1660)">13%</text></g></g><g clip-path="url(#clip11)"><path d="M1297.5 810.5 1440.42 810.5 1440.42 810.5 1501.67 810.5 1542.5 810.5 1542.5 937.667 1576.6 998.13 1542.5 992.167 1542.5 1028.5 1501.67 1028.5 1440.42 1028.5 1440.42 1028.5 1297.5 1028.5 1297.5 992.167 1297.5 937.667 1297.5 937.667Z" stroke="#BFBFBF" stroke-width="3.4375" stroke-linejoin="round" stroke-miterlimit="10" fill="#FFFFFF" fill-rule="evenodd"/></g><g clip-path="url(#clip12)"><g clip-path="url(#clip13)"><text fill="#595959" font-family="Calibri,Calibri_MSFontService,sans-serif" font-weight="400" font-size="83" transform="matrix(1 0 0 1 1312.14 898)">Yellow</text></g></g><g clip-path="url(#clip14)"><g clip-path="url(#clip15)"><text fill="#595959" font-family="Calibri,Calibri_MSFontService,sans-serif" font-weight="400" font-size="83" transform="matrix(1 0 0 1 1348.5 998)">12%</text></g></g><g clip-path="url(#clip16)"><path d="M1667.5 448.5 1812.17 448.5 1812.17 448.5 1874.17 448.5 1915.5 448.5 1915.5 575.083 1915.5 575.083 1915.5 629.333 1915.5 665.5 1874.17 665.5 1931.62 692.31 1812.17 665.5 1667.5 665.5 1667.5 629.333 1667.5 575.083 1667.5 575.083Z" stroke="#BFBFBF" stroke-width="3.4375" stroke-linejoin="round" stroke-miterlimit="10" fill="#FFFFFF" fill-rule="evenodd"/></g><g clip-path="url(#clip17)"><g clip-path="url(#clip18)"><text fill="#595959" font-family="Calibri,Calibri_MSFontService,sans-serif" font-weight="400" font-size="83" transform="matrix(1 0 0 1 1682.46 535)">Purple</text></g></g><g clip-path="url(#clip19)"><g clip-path="url(#clip20)"><text fill="#595959" font-family="Calibri,Calibri_MSFontService,sans-serif" font-weight="400" font-size="83" transform="matrix(1 0 0 1 1741.08 635)">9%</text></g></g><g clip-path="url(#clip21)"><path d="M2841.5 780.5 2870.17 780.5 2870.17 780.5 2913.17 780.5 3013.5 780.5 3013.5 907.083 3013.5 907.083 3013.5 961.333 3013.5 997.5 2913.17 997.5 2870.17 997.5 2870.17 997.5 2841.5 997.5 2841.5 961.333 2808.8 973.947 2841.5 907.083Z" stroke="#BFBFBF" stroke-width="3.4375" stroke-linejoin="round" stroke-miterlimit="10" fill="#FFFFFF" fill-rule="evenodd"/></g><g clip-path="url(#clip22)"><g clip-path="url(#clip23)"><text fill="#595959" font-family="Calibri,Calibri_MSFontService,sans-serif" font-weight="400" font-size="83" transform="matrix(1 0 0 1 2863.64 868)">Red</text></g></g><g clip-path="url(#clip24)"><g clip-path="url(#clip25)"><text fill="#595959" font-family="Calibri,Calibri_MSFontService,sans-serif" font-weight="400" font-size="83" transform="matrix(1 0 0 1 2856.21 968)">35%</text></g></g><g clip-path="url(#clip26)"><path d="M2752.5 1988.5 2782 1988.5 2782 1988.5 2826.25 1988.5 2929.5 1988.5 2929.5 2024.83 2929.5 2024.83 2929.5 2079.33 2929.5 2206.5 2826.25 2206.5 2782 2206.5 2782 2206.5 2752.5 2206.5 2752.5 2079.33 2248.94 2084.88 2752.5 2024.83Z" stroke="#BFBFBF" stroke-width="3.4375" stroke-linejoin="round" stroke-miterlimit="10" fill="#FFFFFF" fill-rule="evenodd"/></g><g clip-path="url(#clip27)"><g clip-path="url(#clip28)"><text fill="#595959" font-family="Calibri,Calibri_MSFontService,sans-serif" font-weight="400" font-size="83" transform="matrix(1 0 0 1 2767.2 2076)">Blue</text></g></g><g clip-path="url(#clip29)"><g clip-path="url(#clip30)"><text fill="#595959" font-family="Calibri,Calibri_MSFontService,sans-serif" font-weight="400" font-size="83" transform="matrix(1 0 0 1 2769.99 2176)">31%</text></g></g><g clip-path="url(#clip31)"><text fill="#595959" font-family="Calibri,Calibri_MSFontService,sans-serif" font-weight="400" font-size="147" transform="matrix(1 0 0 1 1430.33 434)">Graph A: </text></g><g clip-path="url(#clip32)"><text fill="#595959" font-family="Calibri,Calibri_MSFontService,sans-serif" font-weight="400" font-size="147" transform="matrix(1 0 0 1 1985.83 434)">Favourite</text></g><g clip-path="url(#clip33)"><text fill="#595959" font-family="Calibri,Calibri_MSFontService,sans-serif" font-weight="400" font-size="147" transform="matrix(1 0 0 1 2574.9 434)">Colour</text></g></g></svg>