<svg width="714" height="458" xmlns="http://www.w3.org/2000/svg" xmlns:xlink="http://www.w3.org/1999/xlink" overflow="hidden"><defs><clipPath id="clip0"><rect x="87" y="191" width="714" height="458"/></clipPath><clipPath id="clip1"><rect x="88" y="191" width="712" height="457"/></clipPath><clipPath id="clip2"><rect x="132" y="260" width="654" height="341"/></clipPath><clipPath id="clip3"><rect x="88" y="191" width="712" height="457"/></clipPath><clipPath id="clip4"><rect x="88" y="191" width="712" height="457"/></clipPath><clipPath id="clip5"><rect x="88" y="191" width="712" height="457"/></clipPath><clipPath id="clip6"><rect x="88" y="191" width="712" height="457"/></clipPath><clipPath id="clip7"><rect x="88" y="191" width="712" height="457"/></clipPath><clipPath id="clip8"><rect x="88" y="191" width="712" height="457"/></clipPath><clipPath id="clip9"><rect x="88" y="191" width="712" height="457"/></clipPath><clipPath id="clip10"><rect x="88" y="191" width="712" height="457"/></clipPath><clipPath id="clip11"><rect x="88" y="191" width="712" height="457"/></clipPath><clipPath id="clip12"><rect x="88" y="191" width="712" height="457"/></clipPath><clipPath id="clip13"><rect x="88" y="191" width="712" height="457"/></clipPath><clipPath id="clip14"><rect x="88" y="191" width="712" height="457"/></clipPath><clipPath id="clip15"><rect x="88" y="191" width="712" height="457"/></clipPath><clipPath id="clip16"><rect x="88" y="191" width="712" height="457"/></clipPath><clipPath id="clip17"><rect x="88" y="191" width="712" height="457"/></clipPath><clipPath id="clip18"><rect x="88" y="191" width="712" height="457"/></clipPath></defs><g clip-path="url(#clip0)" transform="translate(-87 -191)"><g clip-path="url(#clip1)"><path d="M132.5 562.5 785.5 562.5M132.5 524.5 785.5 524.5M132.5 487.5 785.5 487.5M132.5 449.5 785.5 449.5M132.5 411.5 785.5 411.5M132.5 373.5 785.5 373.5M132.5 336.5 785.5 336.5M132.5 298.5 785.5 298.5M132.5 260.5 785.5 260.5" stroke="#D9D9D9" stroke-linejoin="round" stroke-miterlimit="10" fill="none"/></g><g clip-path="url(#clip2)"><path d="M177 472 252 472 252 600 177 600ZM341 336 415 336 415 600 341 600ZM504 442 578 442 578 600 504 600ZM667 306 741 306 741 600 667 600Z" fill="#4472C4"/></g><g clip-path="url(#clip3)"><path d="M132.5 600.5 785.5 600.5" stroke="#D9D9D9" stroke-linejoin="round" stroke-miterlimit="10" fill="none" fill-rule="evenodd"/></g><g clip-path="url(#clip4)"><text fill="#595959" font-family="Calibri,Calibri_MSFontService,sans-serif" font-weight="400" font-size="19" transform="translate(96.6667 606)">50</text></g><g clip-path="url(#clip5)"><text fill="#595959" font-family="Calibri,Calibri_MSFontService,sans-serif" font-weight="400" font-size="19" transform="translate(96.6667 568)">55</text></g><g clip-path="url(#clip6)"><text fill="#595959" font-family="Calibri,Calibri_MSFontService,sans-serif" font-weight="400" font-size="19" transform="translate(96.6667 530)">60</text></g><g clip-path="url(#clip7)"><text fill="#595959" font-family="Calibri,Calibri_MSFontService,sans-serif" font-weight="400" font-size="19" transform="translate(96.6667 493)">65</text></g><g clip-path="url(#clip8)"><text fill="#595959" font-family="Calibri,Calibri_MSFontService,sans-serif" font-weight="400" font-size="19" transform="translate(96.6667 455)">70</text></g><g clip-path="url(#clip9)"><text fill="#595959" font-family="Calibri,Calibri_MSFontService,sans-serif" font-weight="400" font-size="19" transform="translate(96.6667 417)">75</text></g><g clip-path="url(#clip10)"><text fill="#595959" font-family="Calibri,Calibri_MSFontService,sans-serif" font-weight="400" font-size="19" transform="translate(96.6667 380)">80</text></g><g clip-path="url(#clip11)"><text fill="#595959" font-family="Calibri,Calibri_MSFontService,sans-serif" font-weight="400" font-size="19" transform="translate(96.6667 342)">85</text></g><g clip-path="url(#clip12)"><text fill="#595959" font-family="Calibri,Calibri_MSFontService,sans-serif" font-weight="400" font-size="19" transform="translate(96.6667 304)">90</text></g><g clip-path="url(#clip13)"><text fill="#595959" font-family="Calibri,Calibri_MSFontService,sans-serif" font-weight="400" font-size="19" transform="translate(96.6667 266)">95</text></g><g clip-path="url(#clip14)"><text fill="#595959" font-family="Calibri,Calibri_MSFontService,sans-serif" font-weight="400" font-size="21" transform="translate(177.125 634)">Scotland</text></g><g clip-path="url(#clip15)"><text fill="#595959" font-family="Calibri,Calibri_MSFontService,sans-serif" font-weight="400" font-size="21" transform="translate(343.091 634)">England</text></g><g clip-path="url(#clip16)"><text fill="#595959" font-family="Calibri,Calibri_MSFontService,sans-serif" font-weight="400" font-size="21" transform="translate(514.35 634)">Wales</text></g><g clip-path="url(#clip17)"><text fill="#595959" font-family="Calibri,Calibri_MSFontService,sans-serif" font-weight="400" font-size="21" transform="translate(664.292 634)">N Ireland</text></g><g clip-path="url(#clip18)"><text fill="#595959" font-family="Calibri,Calibri_MSFontService,sans-serif" font-weight="400" font-size="32" transform="translate(222.783 232)">Graph B: Employment Rate (2019)</text></g></g></svg>